PathFileType	4	(X/Y/Z)	C:/Users/alexw/Dropbox/ABI/BIOMENG 771 Files/BIOMENG_771/KinematicsLab/Right.trc	
DataRate	CameraRate	NumFrames	NumMarkers	Units	OrigDataRate	OrigDataStartFrame	OrigNumFrames	
120.00	120.00	19	8	mm	120.00	1039	1623	
Frame#	Time	RAsis			LAsis			RPsis			LPsis			RThighInferior			RThighLateral			RPatella			RThighSuperior			
		X1	Y1	Z1	X2	Y2	Z2	X3	Y3	Z3	X4	Y4	Z4	X5	Y5	Z5	X6	Y6	Z6	X7	Y7	Z7	X8	Y8	Z8	

1015	8.450	-374.26224	181.22881	1065.28052	-123.31277	152.95796	983.61316	-243.66434	380.11224	1000.48102	-187.87444	368.88049	991.39618	-441.40485	106.43890	623.71600	-403.47006	94.96410	721.01672	-403.04794	68.98705	534.67230	-441.66342	215.86638	847.67120 
1016	8.458	-374.34811	180.73454	1065.37292	-123.33471	152.77507	983.72113	-244.18340	379.70953	1000.29065	-188.01167	368.74948	991.41699	-442.03223	105.36708	623.73029	-404.43320	93.85251	721.35199	-403.48969	68.31013	534.01385	-442.02222	215.33737	847.43262 
1017	8.467	-374.49777	180.08507	1065.50806	-123.39658	152.56270	983.82239	-244.48129	379.41672	1000.19672	-188.40918	368.37024	990.64111	-442.77579	104.17896	623.79602	-405.19995	92.69361	721.71301	-403.72009	67.38649	533.33136	-442.60269	214.71504	847.39050 
1018	8.475	-374.56653	179.51753	1065.56055	-123.40479	152.33363	983.93109	-245.13052	378.89160	1000.02441	-188.91644	368.04367	990.51978	-443.38681	103.14628	624.02893	-405.96915	91.40585	722.00092	-403.88278	66.51922	532.69861	-443.23010	214.12234	847.21655 
1019	8.483	-374.63541	178.96829	1065.49280	-123.44090	152.07397	983.96173	-245.70903	378.43442	999.81757	-189.45325	367.67334	990.40875	-444.08917	102.00156	624.17902	-406.61716	90.20992	722.34393	-404.06451	65.48686	532.00641	-443.94720	213.33231	847.10962 
1020	8.492	-374.80884	178.23997	1065.45142	-123.49815	151.75586	984.03235	-246.20354	378.01709	999.65503	-189.86688	367.40771	990.27380	-444.49878	100.61403	624.21393	-407.45956	89.01492	722.56104	-404.39417	64.88762	531.18066	-444.78473	212.68619	847.09808 
1021	8.500	-374.99237	177.60983	1065.41187	-123.56542	151.47153	984.01733	-246.80118	377.58817	999.43115	-190.33577	367.12048	990.11188	-444.98325	99.21753	624.26630	-407.98801	87.56738	722.74829	-404.59937	64.06721	530.17834	-445.03989	211.75031	846.84650 
1022	8.508	-374.99548	176.86755	1065.21265	-123.55721	151.19159	984.03625	-247.27153	377.17886	999.16290	-190.86208	366.73987	989.69690	-445.44180	97.98798	624.42584	-408.43826	86.29988	722.83154	-404.78128	63.21769	529.44611	-445.38422	210.63509	846.54327 
1023	8.517	-375.02454	176.02098	1064.99072	-123.55653	150.90038	983.95813	-247.84039	376.75842	998.96729	-191.41435	366.38870	989.48468	-445.84750	96.56678	624.36182	-408.48627	84.94046	722.92609	-404.86932	62.32573	528.57758	-445.61029	209.61612	846.69446 
1024	8.525	-375.14581	175.28981	1064.88770	-123.62116	150.69424	983.85217	-248.53084	376.27097	998.70282	-191.89102	366.06503	989.35034	-446.17538	95.19238	624.36896	-408.83453	83.67902	723.03644	-404.90274	61.65960	527.68689	-445.83264	208.61801	846.77557 
1025	8.533	-375.33057	174.65376	1064.82117	-123.61347	150.48514	983.79669	-249.26141	375.65344	998.69427	-192.50790	365.60605	989.22021	-446.47464	93.82729	624.39191	-409.00351	82.61588	723.12543	-404.98837	61.10155	526.80579	-446.41159	207.53003	846.88409 
1026	8.542	-375.48483	174.03484	1064.74585	-123.53434	150.27609	983.82404	-250.01176	374.99524	998.37799	-193.09839	365.33743	989.03778	-446.77170	92.62093	624.59082	-409.05649	81.24269	723.31897	-404.93661	60.53212	526.05066	-446.49438	206.44028	846.65814 
1027	8.550	-375.56531	173.51627	1064.66162	-123.44862	150.07159	983.90833	-250.56453	374.57541	998.15411	-193.61476	365.05936	988.89014	-447.28094	91.53680	624.78625	-409.21249	80.26188	723.32037	-405.18384	60.06578	525.35095	-446.62503	205.40541	846.55463 
1028	8.558	-375.81973	172.98509	1064.69763	-123.39243	149.88358	984.00848	-250.73718	374.45316	997.62219	-193.99875	364.74802	988.68597	-447.71085	90.44991	624.99976	-409.56622	79.37864	723.57153	-405.33832	59.80112	524.80780	-447.07733	204.56610	846.62158 
1029	8.567	-376.06931	172.32834	1064.71118	-123.34481	149.67786	984.16663	-251.22678	374.15234	997.57367	-194.55670	364.43460	988.51099	-448.23349	89.43085	625.18469	-409.92670	78.44146	723.89618	-405.61734	59.57001	524.34192	-447.93820	203.88345	846.73743 
1030	8.575	-376.18152	171.62573	1064.67456	-123.29702	149.46075	984.32593	-251.75461	373.71426	997.29553	-195.05206	364.07004	988.43036	-448.79849	88.62873	625.42566	-410.34003	77.63827	724.13721	-406.03110	59.38307	523.69366	-447.74371	203.22047	846.68933 
1031	8.583	-376.22552	171.09377	1064.53259	-123.26709	149.18507	984.50262	-252.20781	373.38901	997.11115	-195.49069	363.76804	988.37970	-449.37857	87.94778	625.60468	-410.72952	76.84490	724.37939	-406.33890	59.24438	522.96747	-447.70264	202.53734	846.47028 
1032	8.592	-376.39893	170.58070	1064.43176	-123.25310	148.95108	984.66101	-252.74612	372.81680	996.88977	-195.78412	363.51382	988.33160	-450.02588	87.33794	625.58331	-411.31293	76.08215	724.55457	-406.64868	59.20963	522.41071	-448.00278	201.91785	846.50714 
1033	8.600	-376.50192	169.96457	1064.22937	-123.19017	148.68631	984.81525	-253.21907	372.43585	996.85638	-196.14140	363.22784	988.32556	-450.80032	86.84206	625.59351	-412.11771	75.29137	724.67084	-407.08530	59.23425	521.80548	-448.25809	201.60229	846.34509 
